<svg width="25" height="21" viewBox="0 0 25 21" fill="none" xmlns="http://www.w3.org/2000/svg">
<path d="M23.9167 1.01047C22.9192 1.7141 21.8147 2.25226 20.6458 2.60422C20.0185 1.88288 19.1847 1.37161 18.2573 1.13956C17.3299 0.907517 16.3536 0.965887 15.4605 1.30678C14.5674 1.64767 13.8005 2.25464 13.2635 3.0456C12.7266 3.83655 12.4455 4.77332 12.4583 5.72922V6.77089C10.6277 6.81836 8.81383 6.41236 7.17813 5.58906C5.54244 4.76577 4.13575 3.55072 3.08333 2.05214C3.08333 2.05214 -1.08333 11.4271 8.29167 15.5938C6.14638 17.05 3.59079 17.7802 1 17.6771C10.375 22.8855 21.8333 17.6771 21.8333 5.69797C21.8324 5.40782 21.8045 5.11839 21.75 4.83339C22.8131 3.78495 23.5634 2.46122 23.9167 1.01047V1.01047Z" stroke="white" stroke-width="1.04167" stroke-linecap="round" stroke-linejoin="round"/>
</svg>
